<svg width="157" height="48" viewBox="0 0 157 48" fill="none" xmlns="http://www.w3.org/2000/svg">
<g clip-path="url(#clip0_245_1586)">
<path d="M51.6777 19.633V0.161865H54.3173V8.53798H63.9586V0.161865H66.5982V19.633H63.9586V10.9876H54.3173V19.633H51.6777Z" fill="#113C66"/>
<path d="M68.6182 13.0606C68.6182 8.93949 71.2312 6.08521 75.0551 6.08521C78.879 6.08521 81.2493 8.67025 81.2493 12.5751V13.5182L71.0694 13.5446C71.2577 16.318 72.7113 17.8541 75.217 17.8541C77.1826 17.8541 78.4759 17.0464 78.907 15.5383H81.2773C80.6314 18.3661 78.423 19.9551 75.164 19.9551C71.2857 19.9551 68.6197 17.1537 68.6197 13.0606H68.6182ZM71.1223 11.8498H78.7171C78.7171 9.66785 77.29 8.21425 75.0551 8.21425C72.8202 8.21425 71.446 9.53401 71.1223 11.8498Z" fill="#113C66"/>
<path d="M82.8648 19.6329V6.4633H85.1542L85.4234 8.4834C86.2576 6.97533 87.9275 6.08667 89.7858 6.08667C93.2595 6.08667 94.8485 8.21416 94.8485 11.5805V19.6329H92.3164V12.147C92.3164 9.481 91.0775 8.40403 89.1384 8.40403C86.7681 8.40403 85.3954 10.1004 85.3954 12.659V19.6344H82.8633L82.8648 19.6329Z" fill="#113C66"/>
<path d="M97.1393 19.6329V6.4633H99.4286L99.6978 8.4834C100.534 6.97533 102.204 6.08667 104.06 6.08667C107.534 6.08667 109.123 8.21416 109.123 11.5805V19.6329H106.591V12.147C106.591 9.481 105.352 8.40403 103.413 8.40403C101.043 8.40403 99.6698 10.1004 99.6698 12.659V19.6344H97.1377L97.1393 19.6329Z" fill="#113C66"/>
<path d="M110.552 13.0606C110.552 8.93949 113.163 6.08521 116.989 6.08521C120.814 6.08521 123.183 8.67025 123.183 12.5751V13.5182L113.003 13.5446C113.191 16.318 114.645 17.8541 117.151 17.8541C119.116 17.8541 120.409 17.0464 120.841 15.5383H123.211C122.565 18.3661 120.357 19.9551 117.098 19.9551C113.219 19.9551 110.553 17.1537 110.553 13.0606H110.552ZM113.056 11.8498H120.651C120.651 9.66785 119.224 8.21425 116.989 8.21425C114.754 8.21425 113.38 9.53401 113.056 11.8498Z" fill="#113C66"/>
<path d="M124.798 6.4633H127.087L127.276 8.83357C128.164 7.0298 129.941 6.08667 132.043 6.08667C135.812 6.08667 138.156 8.9145 138.156 12.9547C138.156 16.9949 135.947 19.983 132.043 19.983C129.941 19.983 128.191 19.0944 127.33 17.4789V25.5313H124.798V6.4633ZM131.504 17.6937C134.089 17.6937 135.624 15.7545 135.624 13.0621C135.624 10.3697 134.089 8.40247 131.504 8.40247C128.919 8.40247 127.356 10.3152 127.356 13.0621C127.356 15.809 128.919 17.6937 131.504 17.6937Z" fill="#113C66"/>
<path d="M139.313 1.66993C139.313 0.726801 140.067 0 140.983 0C141.9 0 142.653 0.726801 142.653 1.66993C142.653 2.61306 141.9 3.33986 140.983 3.33986C140.067 3.33986 139.313 2.5866 139.313 1.66993ZM139.745 6.46339H142.277V19.633H139.745V6.46339Z" fill="#113C66"/>
<path d="M144.728 19.6329V6.4633H147.017L147.287 8.4834C148.121 6.97533 149.791 6.08667 151.649 6.08667C155.123 6.08667 156.712 8.21416 156.712 11.5805V19.6329H154.18V12.147C154.18 9.481 152.941 8.40403 151.002 8.40403C148.631 8.40403 147.259 10.1004 147.259 12.659V19.6344H144.727L144.728 19.6329Z" fill="#113C66"/>
<path d="M50.5195 32.1101C50.5195 26.1043 54.317 22.0376 59.8917 22.0376C64.2805 22.0376 67.6468 24.6491 68.3752 28.6348H65.5473C64.819 26.1027 62.6386 24.5682 59.8108 24.5682C55.8795 24.5682 53.2929 27.5298 53.2929 32.0821C53.2929 36.6343 55.8779 39.596 59.8108 39.596C62.665 39.596 64.9279 38.0615 65.6547 35.6647H68.4561C67.6219 39.5431 64.1467 42.1281 59.7578 42.1281C54.2096 42.1281 50.5211 38.1424 50.5211 32.1101H50.5195Z" fill="#113C66"/>
<path d="M76.0511 28.3125C79.9839 28.3125 82.8911 31.1668 82.8911 35.2335C82.8911 39.3001 79.9823 42.1544 76.0511 42.1544C72.1198 42.1544 69.1846 39.3001 69.1846 35.2335C69.1846 31.1668 72.0933 28.3125 76.0511 28.3125ZM76.0511 39.8931C78.5832 39.8931 80.3605 37.9804 80.3605 35.2335C80.3605 32.4865 78.5832 30.5738 76.0511 30.5738C73.5189 30.5738 71.7416 32.4865 71.7416 35.2335C71.7416 37.9804 73.4925 39.8931 76.0511 39.8931Z" fill="#113C66"/>
<path d="M95.765 28.6627V41.8307H93.5021L93.2328 39.8371C92.4796 41.2113 90.7287 42.1529 88.7896 42.1529C85.7189 42.1529 83.9961 40.0798 83.9961 36.8474V28.6611H86.5282V36.0132C86.5282 38.841 87.739 39.918 89.6782 39.918C91.994 39.918 93.2593 38.4364 93.2593 35.6085V28.6611H95.7634L95.765 28.6627Z" fill="#113C66"/>
<path d="M98.2164 41.8322V28.6642H100.506L100.775 30.6843C101.611 29.1763 103.281 28.2876 105.137 28.2876C108.611 28.2876 110.2 30.4151 110.2 33.7814V41.8338H107.668V34.3479C107.668 31.6819 106.429 30.605 104.49 30.605C102.12 30.605 100.747 32.3013 100.747 34.8599V41.8354H98.2148L98.2164 41.8322Z" fill="#113C66"/>
<path d="M113.675 41.8322V30.7901H111.09V28.6626H113.675V24.5415H116.207V28.6626H118.792V30.7901H116.207V41.8322H113.675Z" fill="#113C66"/>
<path d="M119.655 45.6562H121.351C122.564 45.6562 123.533 45.4679 124.153 43.798L124.61 42.5327L119.305 28.6643H121.971L125.795 39.2753L129.699 28.6643H132.311L126.09 44.7956C125.202 47.0569 123.882 48 121.862 48C121.028 48 120.327 47.8926 119.653 47.7308V45.6562H119.655Z" fill="#113C66"/>
<path d="M0 0.150879V41.8307H41.6798V0.150879H0Z" fill="#113C66"/>
<path d="M25.4671 11.263C25.85 12.0039 26.0445 12.9392 26.0476 13.7749V18.3241H15.6437V13.1695L15.6623 13.1664C15.7184 12.561 15.8755 11.9836 16.1308 11.4405C16.5183 10.6141 17.1206 9.91061 17.8599 9.3908V7.94653H7.84961V34.0336H15.6437V25.3524H26.0476V34.0336H33.8417V7.94809H23.8174V9.38613C24.5053 9.86859 25.0781 10.5129 25.4671 11.263Z" fill="white"/>
</g>
<defs>
<clipPath id="clip0_245_1586">
<rect width="157" height="48" fill="white"/>
</clipPath>
</defs>
</svg>
